<svg width="230" height="219" viewBox="0 0 230 219" fill="none" xmlns="http://www.w3.org/2000/svg">
<g clip-path="url(#clip0_1_66)">
<path d="M0.697498 177.113C0.708132 177.168 0.724901 177.222 0.747491 177.273C0.757489 177.303 0.767488 177.343 0.777486 177.373L12.1858 197.13L12.2158 197.16C12.2358 197.19 12.2558 197.22 12.2858 197.26C12.3244 197.302 12.3681 197.339 12.4158 197.37C12.4458 197.39 12.4658 197.42 12.4958 197.44C12.5075 197.448 12.5217 197.452 12.5358 197.45C12.649 197.514 12.776 197.548 12.9057 197.55H58.0391L69.2074 216.887L69.2374 216.917C69.2574 216.947 69.2774 216.977 69.3074 217.017C69.346 217.059 69.3897 217.096 69.4374 217.127C69.4674 217.147 69.4874 217.177 69.5174 217.197C69.5291 217.205 69.5433 217.209 69.5574 217.207C69.6706 217.271 69.7977 217.305 69.9273 217.307H138.367C138.5 217.305 138.63 217.271 138.747 217.207L138.837 217.147C138.922 217.091 138.997 217.02 139.057 216.937C139.067 216.917 139.097 216.907 139.107 216.887L150.516 197.13C150.526 197.11 150.525 197.1 150.535 197.08C150.553 197.049 150.567 197.015 150.575 196.98C150.586 196.94 150.595 196.91 150.605 196.87C150.614 196.834 150.617 196.797 150.615 196.76C150.615 196.74 150.625 196.73 150.625 196.71C150.625 196.69 150.615 196.68 150.615 196.66C150.615 196.62 150.605 196.59 150.605 196.55C150.605 196.51 150.586 196.48 150.575 196.44C150.564 196.406 150.551 196.373 150.535 196.34C150.525 196.32 150.526 196.31 150.516 196.29L127.949 157.206L139.107 137.869C139.117 137.849 139.117 137.839 139.127 137.819C139.145 137.788 139.158 137.754 139.167 137.719C139.177 137.679 139.187 137.649 139.197 137.609C139.205 137.573 139.209 137.536 139.207 137.499C139.207 137.479 139.217 137.469 139.217 137.449C139.217 137.429 139.207 137.419 139.207 137.399C139.207 137.359 139.197 137.329 139.197 137.289C139.197 137.249 139.177 137.219 139.167 137.179C139.156 137.145 139.142 137.112 139.127 137.079C139.117 137.059 139.117 137.049 139.107 137.029L104.902 77.7478C104.882 77.7178 104.852 77.6978 104.832 77.6678C104.798 77.6224 104.761 77.579 104.722 77.5378C104.681 77.5045 104.638 77.4744 104.592 77.4479C104.549 77.4186 104.502 77.3951 104.452 77.3779C104.394 77.3587 104.333 77.3453 104.272 77.3379C104.242 77.3379 104.212 77.3179 104.172 77.3179H81.3557C81.3357 77.3179 81.3257 77.3279 81.3057 77.3279C81.2657 77.3279 81.2357 77.3379 81.1957 77.3379L81.0757 77.3679C81.0457 77.3779 81.0057 77.3979 80.9757 77.4079C80.9457 77.4179 80.9457 77.4179 80.9257 77.4279C80.9143 77.4402 80.9008 77.4504 80.8857 77.4579C80.8534 77.478 80.8232 77.5015 80.7957 77.5278C80.7666 77.5519 80.7398 77.5787 80.7158 77.6078C80.6958 77.6378 80.6658 77.6678 80.6458 77.6978C80.6334 77.7092 80.6233 77.7228 80.6158 77.7378L58.0491 116.832H35.7324C35.7124 116.832 35.7024 116.842 35.6824 116.842C35.6424 116.842 35.6124 116.852 35.5724 116.852C35.5324 116.852 35.4924 116.872 35.4624 116.882C35.4284 116.894 35.395 116.907 35.3624 116.922C35.3424 116.932 35.3324 116.932 35.3124 116.942C35.2924 116.952 35.2924 116.962 35.2724 116.972C35.2401 116.992 35.2099 117.016 35.1824 117.042C35.1533 117.066 35.1265 117.093 35.1024 117.122C35.0825 117.152 35.0525 117.182 35.0325 117.212C35.0201 117.223 35.0099 117.237 35.0025 117.252L0.787485 176.533C0.772946 176.565 0.762853 176.599 0.757489 176.633C0.7363 176.685 0.719575 176.739 0.707497 176.793C0.691626 176.845 0.68486 176.899 0.6875 176.953C0.685844 177.007 0.689192 177.06 0.697498 177.113ZM103.682 79.0176L136.927 136.599H116.071L82.8154 79.0176H103.682ZM115.091 176.113H94.2238L116.061 138.279H136.927L115.091 176.113ZM81.3557 79.8575L114.601 137.439L92.764 175.273L82.3355 157.196L93.5039 137.859C93.5139 137.839 93.5139 137.829 93.5239 137.809C93.5415 137.778 93.5549 137.744 93.5639 137.709C93.5739 137.669 93.5839 137.639 93.5939 137.599C93.6021 137.563 93.6055 137.526 93.6039 137.489C93.6039 137.469 93.6139 137.459 93.6139 137.439C93.6139 137.419 93.6039 137.409 93.6039 137.389C93.6039 137.349 93.5939 137.319 93.5939 137.279C93.5939 137.239 93.5739 137.209 93.5639 137.169C93.5523 137.135 93.5389 137.102 93.5239 137.069C93.5139 137.049 93.5139 137.039 93.5039 137.019L82.0856 117.262C82.0656 117.232 82.0356 117.212 82.0156 117.182C81.9814 117.137 81.9447 117.093 81.9056 117.052C81.8647 117.019 81.8212 116.989 81.7756 116.962C81.731 116.935 81.6842 116.911 81.6356 116.892C81.5811 116.872 81.5236 116.862 81.4656 116.862C81.4356 116.862 81.3957 116.842 81.3657 116.842H60.0088L81.3557 79.8575ZM58.549 118.532H80.8757L91.3142 136.599H47.6306L37.1921 118.532H58.549ZM35.7324 119.372L46.1608 137.439L12.9157 195.021L2.48724 176.953L35.7324 119.372ZM14.3855 195.86L47.6306 138.279H91.3142L80.8757 156.356H58.549C58.529 156.356 58.519 156.366 58.499 156.366C58.459 156.366 58.429 156.376 58.389 156.376L58.2691 156.406C58.2391 156.416 58.1991 156.436 58.1691 156.446C58.1391 156.456 58.1391 156.456 58.1191 156.466C58.1077 156.479 58.0941 156.489 58.0791 156.496C58.0467 156.516 58.0166 156.54 57.9891 156.566C57.96 156.59 57.9332 156.617 57.9091 156.646C57.8891 156.676 57.8591 156.706 57.8391 156.736C57.8291 156.746 57.8091 156.756 57.8091 156.776L46.4008 176.533C46.3863 176.565 46.3762 176.599 46.3708 176.633C46.3496 176.685 46.3329 176.739 46.3208 176.793C46.3122 176.846 46.3088 176.9 46.3108 176.953C46.3092 177.007 46.3125 177.06 46.3208 177.113C46.3314 177.168 46.3482 177.222 46.3708 177.273C46.3808 177.303 46.3908 177.343 46.4008 177.373L57.0792 195.86H14.3855ZM137.907 215.618H71.4171L81.8456 197.55H148.336L137.907 215.618ZM69.9573 214.778L48.1205 176.953L58.559 158.876L80.3958 196.7L69.9573 214.778ZM148.336 195.86H81.8456L60.0088 158.036H80.8757L92.0441 177.373L92.0741 177.403C92.094 177.439 92.1174 177.472 92.1441 177.503C92.1827 177.545 92.2263 177.582 92.2741 177.613C92.3041 177.633 92.3241 177.663 92.354 177.683C92.3658 177.691 92.3799 177.695 92.394 177.693C92.5072 177.756 92.6343 177.791 92.764 177.793H115.581C115.713 177.791 115.844 177.757 115.961 177.693L116.051 177.633C116.135 177.576 116.21 177.505 116.271 177.423C116.281 177.403 116.311 177.393 116.321 177.373L126.999 158.876L148.336 195.86Z" fill="white"/>
</g>
<g clip-path="url(#clip1_1_66)">
<path d="M211.513 81.8121L227.964 65.3608H176.213L228.117 13.4569L216.48 1.82007L164.585 53.7239V1.97305L148.125 18.4324V81.8121H211.513Z" stroke="#707070" stroke-width="0.999901"/>
</g>
<defs>
<clipPath id="clip0_1_66">
<rect width="149.938" height="140" fill="white" transform="translate(0.6875 77.3125)"/>
</clipPath>
<clipPath id="clip1_1_66">
<rect width="81.5469" height="81.5469" fill="white" transform="translate(147.625 0.765625)"/>
</clipPath>
</defs>
</svg>
