<svg width="220" height="219" viewBox="0 0 220 219" fill="none" xmlns="http://www.w3.org/2000/svg">
<g clip-path="url(#clip0_1_75)">
<path d="M1.02003 194.783C1.03217 194.834 1.04888 194.885 1.07 194.933C1.07544 194.964 1.08555 194.995 1.09999 195.023L8.37785 207.64L8.40784 207.67C8.42798 207.703 8.45144 207.733 8.47782 207.76C8.51781 207.8 8.55779 207.83 8.59778 207.87C8.62777 207.89 8.63778 207.92 8.66777 207.93C8.6795 207.938 8.69364 207.942 8.70774 207.94C8.81628 207.996 8.93579 208.027 9.05764 208.03H132.891C133.013 208.027 133.132 207.996 133.241 207.94C133.271 207.92 133.291 207.9 133.321 207.88C133.402 207.83 133.47 207.761 133.521 207.68C133.531 207.66 133.551 207.65 133.571 207.63L140.859 195.013C140.869 195.003 140.869 194.983 140.879 194.973C140.898 194.942 140.912 194.908 140.919 194.873C140.929 194.843 140.939 194.803 140.949 194.773C140.957 194.74 140.96 194.707 140.959 194.673C140.959 194.653 140.969 194.643 140.969 194.623C140.969 194.603 140.959 194.593 140.959 194.573C140.959 194.553 140.949 194.503 140.949 194.473C140.949 194.443 140.929 194.403 140.919 194.373C140.908 194.339 140.895 194.305 140.879 194.273C140.869 194.263 140.869 194.243 140.859 194.233L78.9471 86.9844C78.9296 86.959 78.9095 86.9356 78.8871 86.9144C78.8558 86.8698 78.8188 86.8295 78.7771 86.7944C78.6987 86.7367 78.615 86.6865 78.5272 86.6445C78.4751 86.6288 78.4215 86.6187 78.3672 86.6145C78.3372 86.6145 78.3072 86.5945 78.2673 86.5945H63.7015C63.6815 86.5945 63.6716 86.6045 63.6516 86.6045C63.6316 86.6045 63.5816 86.6145 63.5516 86.6145L63.4416 86.6445C63.4073 86.6552 63.3739 86.6685 63.3417 86.6845C63.3299 86.6924 63.3158 86.696 63.3017 86.6945C63.2903 86.7068 63.2767 86.717 63.2617 86.7245C63.2333 86.742 63.2065 86.7621 63.1817 86.7844C63.1526 86.8085 63.1258 86.8353 63.1017 86.8644C63.0817 86.8944 63.0617 86.9144 63.0417 86.9444C63.0294 86.9558 63.0192 86.9694 63.0117 86.9844L1.08998 194.243C1.07554 194.271 1.06544 194.302 1.05999 194.333C1.03886 194.381 1.02214 194.432 1.01002 194.483C1.00172 194.533 0.998356 194.583 1.00001 194.633C1.01001 194.683 1.01003 194.733 1.02003 194.783ZM77.8174 88.1642L138.829 193.843H32.2808L38.6589 182.805H118.345C118.469 182.804 118.59 182.77 118.695 182.705C118.705 182.695 118.725 182.705 118.735 182.695C118.761 182.678 118.784 182.658 118.805 182.635C118.848 182.601 118.888 182.565 118.925 182.525C118.955 182.488 118.982 182.448 119.005 182.405C119.035 182.367 119.056 182.323 119.065 182.275C119.086 182.225 119.096 182.17 119.095 182.115C119.095 182.085 119.115 182.055 119.115 182.015C119.115 181.995 119.105 181.985 119.105 181.965C119.1 181.915 119.09 181.864 119.075 181.816C119.063 181.764 119.046 181.714 119.025 181.666C119.015 181.656 119.015 181.636 119.005 181.626L65.0511 88.1642H77.8174ZM132.451 206.461H10.4272L63.7015 114.179L70.0797 125.217L30.2314 194.233C30.2234 194.245 30.2199 194.259 30.2214 194.273C30.2003 194.321 30.1835 194.372 30.1714 194.423C30.1566 194.472 30.1466 194.522 30.1414 194.573C30.1414 194.593 30.1314 194.603 30.1314 194.623C30.1314 194.643 30.1514 194.683 30.1514 194.723C30.1566 194.777 30.1666 194.831 30.1814 194.883C30.2014 194.933 30.2214 194.973 30.2414 195.013C30.2657 195.054 30.2924 195.094 30.3214 195.133C30.3614 195.173 30.4014 195.203 30.4414 195.243C30.4713 195.263 30.4813 195.293 30.5113 195.303C30.5213 195.313 30.5413 195.303 30.5513 195.313C30.6592 195.372 30.7786 195.406 30.9012 195.413H138.809L132.451 206.461ZM102.41 181.236H39.5587L70.9894 126.796L102.41 181.236ZM63.7015 88.954L116.976 181.236H104.23L64.3913 112.219C64.379 112.208 64.3688 112.194 64.3614 112.179C64.3314 112.139 64.2914 112.099 64.2614 112.059C64.2261 112.021 64.1857 111.987 64.1414 111.959C64.13 111.947 64.1165 111.937 64.1014 111.929C64.0731 111.915 64.0428 111.905 64.0114 111.899C63.9631 111.878 63.9129 111.862 63.8615 111.849C63.762 111.836 63.6611 111.836 63.5616 111.849C63.5102 111.862 63.46 111.878 63.4116 111.899C63.3803 111.905 63.35 111.915 63.3216 111.929C63.3103 111.942 63.2967 111.952 63.2817 111.959C63.2417 111.989 63.2017 112.029 63.1617 112.059C63.1204 112.092 63.0864 112.133 63.0617 112.179C63.0494 112.191 63.0392 112.204 63.0318 112.219L9.07765 205.681L2.69953 194.643L63.7015 88.954Z" fill="white"/>
</g>
<g clip-path="url(#clip1_1_75)">
<path d="M201.856 81.8121L218.308 65.3608H166.557L218.461 13.4569L206.824 1.82007L154.929 53.7239V1.97305L138.469 18.4324V81.8121H201.856Z" stroke="#707070" stroke-width="0.999901"/>
</g>
<defs>
<clipPath id="clip0_1_75">
<rect width="139.969" height="121.438" fill="white" transform="translate(1 86.5938)"/>
</clipPath>
<clipPath id="clip1_1_75">
<rect width="81.5469" height="81.5469" fill="white" transform="translate(137.969 0.765625)"/>
</clipPath>
</defs>
</svg>
