<svg width="201" height="219" viewBox="0 0 201 219" fill="none" xmlns="http://www.w3.org/2000/svg">
<g clip-path="url(#clip0_1_84)">
<path d="M121.922 112.323L101.226 100.375L82.0189 111.463V89.2767L61.3126 77.3286L40.6162 89.2767V111.453L21.4095 100.365L0.703125 112.323V136.229L19.9098 147.318L0.703125 158.406V182.312L21.3995 194.26L40.6062 183.172V205.348L61.3026 217.296L81.9989 205.348V183.172L101.206 194.26L121.922 182.312V158.406L102.715 147.318L121.922 136.229V112.323ZM101.226 102.095L119.692 112.753L82.1389 134.5L82.0189 113.183L101.226 102.095ZM80.5292 114.043L80.6491 135.369L62.0624 146.138V101.665L80.5292 91.0064V114.043ZM42.1059 91.0064L60.5627 101.665V146.138L42.1059 135.449V91.0064ZM21.3995 102.095L40.6062 113.183V134.57L2.94278 112.753L21.3995 102.095ZM2.19292 135.369V114.053L39.8663 135.869L21.4095 146.458L2.19292 135.369ZM2.19292 181.452V160.135L20.6496 170.794V192.11L2.19292 181.452ZM2.94278 158.836L21.7794 147.967L41.366 136.729L59.8228 147.418L21.4095 169.494L2.94278 158.836ZM60.5627 215.147L42.1059 204.488V182.312L60.5627 171.654V215.147ZM42.1059 180.592L40.9861 181.242L22.1494 192.12V170.804L60.5627 148.727V169.934L42.1059 180.592ZM61.3126 100.375L42.8558 89.7167L61.3126 79.0583L79.7693 89.7167L61.3126 100.375ZM80.5191 204.488L62.0624 215.147V171.654L80.5191 182.312V204.488ZM100.476 192.11L81.639 181.232L80.5191 180.582L62.0624 169.924V148.717L100.476 170.794V192.11ZM120.432 181.452L101.975 192.11V170.614L120.432 160.125V181.452ZM119.672 158.836L101.066 169.414L62.8023 147.428L81.389 136.659L99.7358 147.318L100.356 147.677L100.726 147.897L100.846 147.967L119.672 158.836ZM120.432 135.369L101.226 146.458L82.8887 135.799L120.442 114.053V135.369H120.432Z" fill="white"/>
</g>
<g clip-path="url(#clip1_1_84)">
<path d="M182.81 81.8121L199.261 65.3608H147.51L199.414 13.4569L187.777 1.82007L135.882 53.7239V1.97305L119.422 18.4324V81.8121H182.81Z" stroke="#707070" stroke-width="0.999901"/>
</g>
<defs>
<clipPath id="clip0_1_84">
<rect width="121.219" height="139.969" fill="white" transform="translate(0.703125 77.3281)"/>
</clipPath>
<clipPath id="clip1_1_84">
<rect width="81.5469" height="81.5469" fill="white" transform="translate(118.922 0.765625)"/>
</clipPath>
</defs>
</svg>
