<svg width="220" height="219" viewBox="0 0 220 219" fill="none" xmlns="http://www.w3.org/2000/svg">
<g clip-path="url(#clip0_1_94)">
<path d="M115.171 84.3813L88.9967 99.378L89.0466 138.419L52.6148 98.8681L25.9107 84.3913L0.65625 98.6682V179.86L26.1806 194.107L52.3748 179.61V172.952L87.9469 210.243L140.625 179.83V98.6682L115.171 84.3813ZM91.4461 102.177L116.111 116.324V167.793L91.4862 141.069L91.4461 102.177ZM3.10572 101.478L25.4608 114.385L87.0771 180.59L87.0971 205.784L25.0409 140.719V190.658L3.10572 178.431V101.478ZM49.9254 170.602V178.181L27.3704 190.658V146.778L50.0653 170.602H49.9254ZM138.296 178.441L89.5265 206.584L89.5066 179.64L26.9904 112.475L4.33543 99.398L25.9506 87.1707L51.125 100.818L118.56 174.011V114.915L92.6758 100.078L115.241 87.1607L138.296 100.078V178.441Z" fill="white"/>
</g>
<g clip-path="url(#clip1_1_94)">
<path d="M201.513 81.8121L217.964 65.3608H166.213L218.117 13.4569L206.48 1.82007L154.585 53.7239V1.97305L138.125 18.4324V81.8121H201.513Z" stroke="#707070" stroke-width="0.999901"/>
</g>
<defs>
<clipPath id="clip0_1_94">
<rect width="139.969" height="125.875" fill="white" transform="translate(0.65625 84.375)"/>
</clipPath>
<clipPath id="clip1_1_94">
<rect width="81.5469" height="81.5469" fill="white" transform="translate(137.625 0.765625)"/>
</clipPath>
</defs>
</svg>
