<svg width="230" height="219" viewBox="0 0 230 219" fill="none" xmlns="http://www.w3.org/2000/svg">
<g clip-path="url(#clip0_1_103)">
<path fill-rule="evenodd" clip-rule="evenodd" d="M144.249 126.134C139.653 111.616 130.451 98.992 118.037 90.1736C105.622 81.3551 90.6722 76.8229 75.451 77.2635C60.2298 77.704 45.5668 83.0933 33.6833 92.6149C21.7999 102.137 13.3435 115.272 9.59495 130.031C5.84644 144.79 7.01016 160.368 12.9098 174.407C18.8095 188.445 29.1237 200.178 42.29 207.828C55.4562 215.479 70.7571 218.63 85.8748 216.804C100.992 214.978 115.103 208.275 126.07 197.71H126.1L126.669 197.14C129.42 194.377 130.962 190.636 130.958 186.737C130.954 182.839 129.403 179.101 126.646 176.344C123.89 173.588 120.152 172.037 116.253 172.033C112.355 172.028 108.613 173.57 105.851 176.321V176.311C100.215 181.826 93.0944 185.579 85.3593 187.11C77.6243 188.641 69.6108 187.884 62.2993 184.932C54.9879 181.979 48.6957 176.959 44.1931 170.486C39.6904 164.013 37.1724 156.368 36.9473 148.486C36.7223 140.604 38.7999 132.827 42.9259 126.108C47.0519 119.388 53.0474 114.017 60.1785 110.652C67.3095 107.287 75.2668 106.074 83.0766 107.162C90.8864 108.249 98.2099 111.589 104.151 116.774L106.121 118.754C107.041 119.687 107.555 120.946 107.551 122.257C107.547 123.568 107.024 124.823 106.097 125.75C105.17 126.677 103.915 127.2 102.604 127.204C101.293 127.208 100.034 126.694 99.1009 125.774L96.3711 123.034L96.2711 123.134C96.2277 123.012 96.1556 122.902 96.061 122.814C91.4259 119.304 85.8905 117.18 80.097 116.689C74.3036 116.199 68.4898 117.361 63.3304 120.042C58.171 122.722 53.8776 126.811 50.9485 131.834C48.0193 136.856 46.5747 142.606 46.782 148.417C46.9894 154.227 48.8404 159.86 52.1201 164.661C55.3999 169.461 59.9738 173.234 65.3111 175.54C70.6485 177.846 76.5304 178.591 82.2741 177.688C88.0179 176.786 93.388 174.273 97.761 170.441C98.5844 169.521 99.0362 168.328 99.0288 167.094C99.0214 165.859 98.5553 164.672 97.721 163.762C95.7511 161.632 92.3813 162.192 90.7113 163.562C87.6667 166.038 83.9869 167.608 80.0924 168.092C76.1979 168.576 72.2457 167.954 68.6876 166.299C65.1294 164.643 62.1087 162.02 59.9706 158.729C57.8325 155.438 56.6633 151.612 56.5965 147.688C56.5297 143.765 57.5681 139.901 59.5929 136.539C61.6178 133.177 64.5474 130.453 68.0472 128.677C71.547 126.902 75.4757 126.146 79.3844 126.497C83.2931 126.849 87.0243 128.292 90.1514 130.663L90.1813 130.643L91.9513 132.413C94.7142 135.164 98.4553 136.706 102.354 136.702C106.253 136.697 109.99 135.147 112.747 132.39C115.504 129.633 117.054 125.896 117.059 121.997C117.063 118.098 115.521 114.357 112.77 111.594L112.55 111.374C112.516 111.217 112.44 111.072 112.33 110.954C105.167 104.1 96.1407 99.5119 86.3816 97.7652C76.6225 96.0186 66.5649 97.1909 57.4691 101.135C48.3734 105.08 40.644 111.621 35.2497 119.939C29.8553 128.258 27.036 137.983 27.1447 147.896C27.2535 157.81 30.2855 167.471 35.8611 175.669C41.4366 183.867 49.3077 190.237 58.4877 193.981C67.6678 197.725 77.7487 198.676 87.4671 196.716C97.1856 194.756 106.109 189.971 113.12 182.961C113.135 182.926 113.152 182.893 113.17 182.861C114.073 182.017 115.259 181.541 116.495 181.527C117.731 181.513 118.927 181.962 119.848 182.786C120.77 183.609 121.35 184.748 121.474 185.978C121.598 187.207 121.258 188.439 120.52 189.43C111.389 198.757 99.4715 204.862 86.5668 206.822C73.6621 208.782 60.4699 206.492 48.9809 200.297C37.4919 194.102 28.3293 184.339 22.8758 172.48C17.4223 160.621 15.9736 147.31 18.7485 134.556C21.5234 121.801 28.3713 110.295 38.2588 101.774C48.1463 93.2531 60.5371 88.1788 73.5613 87.3172C86.5856 86.4556 99.5367 89.8534 110.461 96.9979C121.384 104.142 129.688 114.646 134.119 126.924C134.849 128.953 136.559 131.913 140.049 131.693C140.724 131.693 141.39 131.535 141.994 131.234C142.598 130.933 143.124 130.496 143.531 129.957C143.938 129.419 144.214 128.793 144.339 128.13C144.463 127.466 144.433 126.783 144.249 126.134Z" stroke="white" stroke-width="1.9999" stroke-miterlimit="10" stroke-linecap="round" stroke-linejoin="round"/>
</g>
<g clip-path="url(#clip1_1_103)">
<path d="M212.2 81.8121L228.652 65.3608H176.901L228.805 13.4569L217.168 1.82007L165.273 53.7239V1.97305L148.812 18.4324V81.8121H212.2Z" stroke="#707070" stroke-width="0.999901"/>
</g>
<defs>
<clipPath id="clip0_1_103">
<rect width="138.922" height="142" fill="white" transform="translate(6.51562 76.3125)"/>
</clipPath>
<clipPath id="clip1_1_103">
<rect width="81.5469" height="81.5469" fill="white" transform="translate(148.312 0.765625)"/>
</clipPath>
</defs>
</svg>
