<svg width="219" height="219" viewBox="0 0 219 219" fill="none" xmlns="http://www.w3.org/2000/svg">
<g clip-path="url(#clip0_1_112)">
<path d="M116.898 187.962C116.908 187.952 116.908 187.932 116.918 187.922C116.938 187.892 116.951 187.858 116.958 187.822C116.968 187.792 116.978 187.752 116.988 187.722C116.997 187.69 117 187.656 116.998 187.622C116.998 187.602 117.008 187.592 117.008 187.572C117.008 187.552 116.998 187.542 116.998 187.522C116.998 187.502 116.988 187.452 116.988 187.422C116.988 187.392 116.968 187.352 116.958 187.322C116.948 187.288 116.934 187.255 116.918 187.222C116.908 187.212 116.908 187.192 116.898 187.182L105.682 167.757H128.104C128.226 167.754 128.346 167.723 128.454 167.667C128.484 167.647 128.504 167.627 128.534 167.607C128.615 167.557 128.683 167.488 128.734 167.407C128.744 167.387 128.764 167.377 128.784 167.357L140.14 147.692C140.15 147.682 140.15 147.662 140.16 147.652C140.179 147.622 140.193 147.588 140.2 147.553C140.21 147.523 140.22 147.483 140.23 147.453C140.238 147.42 140.242 147.386 140.24 147.353C140.24 147.333 140.25 147.323 140.25 147.303C140.25 147.283 140.24 147.273 140.24 147.253C140.24 147.233 140.23 147.183 140.23 147.153C140.23 147.123 140.21 147.083 140.2 147.053C140.189 147.018 140.176 146.985 140.16 146.953C140.15 146.943 140.15 146.923 140.14 146.913L128.784 127.248C128.767 127.222 128.747 127.199 128.724 127.178C128.693 127.133 128.656 127.093 128.614 127.058C128.572 127.025 128.529 126.995 128.484 126.968C128.444 126.942 128.4 126.922 128.354 126.908C128.303 126.888 128.249 126.878 128.194 126.878C128.164 126.878 128.134 126.858 128.104 126.858H105.682L116.898 107.433C116.908 107.423 116.908 107.403 116.918 107.393C116.938 107.362 116.951 107.328 116.958 107.293C116.968 107.263 116.978 107.223 116.988 107.193C116.997 107.16 117 107.127 116.998 107.093C116.998 107.073 117.008 107.063 117.008 107.043C117.008 107.023 116.998 107.013 116.998 106.993C116.998 106.973 116.988 106.923 116.988 106.893C116.988 106.863 116.968 106.823 116.958 106.793C116.948 106.759 116.934 106.725 116.918 106.693C116.908 106.683 116.908 106.663 116.898 106.653L105.552 86.988C105.535 86.9627 105.515 86.9392 105.492 86.9181C105.462 86.8757 105.429 86.8356 105.392 86.7981C105.351 86.7658 105.307 86.7357 105.262 86.7081C105.222 86.6822 105.178 86.662 105.132 86.6481C105.081 86.6286 105.027 86.6184 104.972 86.6181C104.942 86.6181 104.913 86.5981 104.883 86.5981H82.1806C82.1606 86.5981 82.1506 86.6081 82.1306 86.6081C82.1106 86.6081 82.0606 86.6181 82.0306 86.6181L81.9207 86.6481C81.889 86.6572 81.8586 86.6707 81.8306 86.6881C81.8189 86.6961 81.8048 86.6996 81.7907 86.6981L81.7607 86.7281C81.7323 86.7456 81.7055 86.7657 81.6808 86.7881C81.6516 86.8122 81.6248 86.839 81.6007 86.8681C81.5807 86.8981 81.5608 86.9181 81.5408 86.9481C81.5285 86.9594 81.5183 86.973 81.5108 86.988L70.2948 106.413L59.0788 86.988C59.0613 86.9627 59.0411 86.9392 59.0187 86.9181C58.9848 86.8756 58.9481 86.8355 58.9088 86.7981C58.8712 86.768 58.831 86.7413 58.7888 86.7181C58.7485 86.6922 58.7048 86.672 58.6589 86.6581C58.6081 86.6377 58.5537 86.6275 58.4989 86.6281C58.4689 86.6281 58.4389 86.6081 58.409 86.6081H35.707C35.687 86.6081 35.677 86.6181 35.657 86.6181C35.637 86.6181 35.587 86.6281 35.557 86.6281L35.4471 86.6581C35.4154 86.6672 35.385 86.6807 35.357 86.6981C35.3453 86.7061 35.3312 86.7096 35.3171 86.7081C35.3057 86.7205 35.2921 86.7306 35.2771 86.7381C35.2487 86.7556 35.2219 86.7757 35.1972 86.7981C35.1681 86.8222 35.1412 86.849 35.1171 86.8781C35.0971 86.9081 35.0772 86.9281 35.0572 86.9581C35.0449 86.9694 35.0347 86.983 35.0272 86.998L23.6812 106.663C23.6668 106.691 23.6566 106.722 23.6512 106.753C23.6301 106.801 23.6133 106.852 23.6012 106.903C23.5878 107.002 23.5878 107.103 23.6012 107.203C23.6133 107.254 23.6301 107.304 23.6512 107.353C23.6566 107.384 23.6668 107.414 23.6812 107.443L34.8972 126.868H12.4752C12.4552 126.868 12.4452 126.878 12.4252 126.878C12.4052 126.878 12.3552 126.888 12.3252 126.888L12.2153 126.918C12.1836 126.927 12.1532 126.94 12.1252 126.958C12.1152 126.968 12.0953 126.968 12.0853 126.978L12.0553 127.008C12.0269 127.025 12.0002 127.045 11.9754 127.068C11.9463 127.092 11.9194 127.119 11.8953 127.148C11.8753 127.178 11.8554 127.198 11.8354 127.228C11.8231 127.239 11.8129 127.253 11.8054 127.268L0.44943 146.933C0.434992 146.961 0.424853 146.991 0.419412 147.023C0.39828 147.071 0.381503 147.121 0.36938 147.173C0.35604 147.272 0.35604 147.373 0.36938 147.473C0.381503 147.524 0.39828 147.574 0.419412 147.623C0.424853 147.654 0.434992 147.684 0.44943 147.712L11.8054 167.377L11.8354 167.407C11.8556 167.44 11.879 167.47 11.9053 167.497C11.9453 167.537 11.9853 167.567 12.0253 167.607C12.0553 167.627 12.0654 167.657 12.0953 167.667C12.1071 167.675 12.1212 167.679 12.1352 167.677C12.2438 167.733 12.3633 167.764 12.4851 167.767H34.9072L23.7012 187.192C23.6868 187.221 23.6767 187.251 23.6712 187.282C23.6501 187.331 23.6333 187.381 23.6212 187.432C23.6078 187.532 23.6078 187.633 23.6212 187.732C23.6333 187.784 23.6501 187.834 23.6712 187.882C23.6767 187.913 23.6868 187.944 23.7012 187.972L35.0472 207.637L35.0772 207.667C35.0974 207.699 35.1208 207.73 35.1471 207.757C35.1871 207.797 35.2271 207.827 35.2671 207.867C35.2971 207.887 35.3072 207.917 35.3371 207.927C35.3489 207.935 35.363 207.939 35.377 207.937C35.4856 207.993 35.6051 208.023 35.7269 208.027H58.429C58.5508 208.023 58.6703 207.993 58.7788 207.937C58.8088 207.917 58.8288 207.897 58.8587 207.877C58.9395 207.826 59.008 207.758 59.0587 207.677C59.0687 207.657 59.0887 207.647 59.1087 207.627L70.3248 188.202L81.5408 207.627L81.5708 207.657C81.591 207.689 81.6144 207.72 81.6407 207.747C81.6807 207.787 81.7207 207.817 81.7607 207.857C81.7907 207.877 81.8006 207.907 81.8306 207.917C81.8423 207.925 81.8566 207.929 81.8706 207.927C81.9792 207.983 82.0987 208.013 82.2205 208.017H104.923C105.044 208.013 105.164 207.983 105.272 207.927C105.302 207.907 105.322 207.887 105.352 207.867C105.433 207.816 105.502 207.748 105.552 207.667C105.562 207.647 105.582 207.637 105.602 207.617L116.898 187.962ZM104.413 206.447H83.5201L93.9663 188.352H114.859L104.413 206.447ZM57.9291 206.447H37.0365L59.3786 167.757H80.2712L57.9291 206.447ZM13.7947 166.178L24.241 148.082H68.9153L58.4689 166.178H13.7947ZM12.4352 129.207L22.8815 147.303L12.4352 165.398L1.9888 147.303L12.4352 129.207ZM25.2306 107.033L35.677 88.9375L58.0191 127.628L47.5728 145.723L25.2306 107.033ZM82.1706 88.9475L92.6169 107.043L70.2848 145.733L59.8384 127.638L82.1706 88.9475ZM104.413 88.1577L114.859 106.253H93.9663L83.5201 88.1577H104.413ZM127.665 128.427L138.111 146.523H93.4366L82.9902 128.427H127.665ZM81.6207 129.207L91.6072 146.513H71.6243L81.6207 129.207ZM68.9153 146.513H48.9323L58.9188 129.207L68.9153 146.513ZM70.2748 148.872L80.2612 166.178H60.2783L70.2748 148.872ZM71.6343 148.092H92.5169L114.849 186.782H93.9563L71.6343 148.092ZM94.3362 148.092H138.101L127.655 166.188H104.773L94.3362 148.092ZM82.9902 126.848L93.9764 107.823H114.869L103.883 126.848H82.9902ZM58.9188 126.068L37.0365 88.1577H57.9291L69.3751 107.973L58.9188 126.068ZM46.2033 146.513H24.231L13.7847 128.417H35.7569L46.2033 146.513ZM57.5593 167.757L35.677 205.668L25.2306 187.572L36.6666 167.757H57.5593ZM81.6207 168.537L92.6068 187.562L82.1606 205.658L71.1745 186.623L81.6207 168.537Z" fill="white"/>
</g>
<g clip-path="url(#clip1_1_112)">
<path d="M201.138 81.8121L217.589 65.3608H165.838L217.742 13.4569L206.105 1.82007L154.21 53.7239V1.97305L137.75 18.4324V81.8121H201.138Z" stroke="#707070" stroke-width="0.999901"/>
</g>
<defs>
<clipPath id="clip0_1_112">
<rect width="139.891" height="121.438" fill="white" transform="translate(0.359375 86.5938)"/>
</clipPath>
<clipPath id="clip1_1_112">
<rect width="81.5469" height="81.5469" fill="white" transform="translate(137.25 0.765625)"/>
</clipPath>
</defs>
</svg>
